<?xml version="1.0" encoding="UTF-8" standalone="no"?>
<!DOCTYPE svg PUBLIC "-//W3C//DTD SVG 1.1//EN" "http://www.w3.org/Graphics/SVG/1.1/DTD/svg11.dtd">
<svg width="100%" height="100%" viewBox="0 0 567 308" version="1.1" xmlns="http://www.w3.org/2000/svg" xmlns:xlink="http://www.w3.org/1999/xlink" xml:space="preserve" xmlns:serif="http://www.serif.com/" style="fill-rule:evenodd;clip-rule:evenodd;stroke-linejoin:round;stroke-miterlimit:2;">
    <g id="Layer1">
        <rect x="0" y="0" width="566.929" height="307.087" style="fill:rgb(36,36,36);"/>
    </g>
    <g transform="matrix(0.791666,0,0,0.791666,-237.449,36.6633)">
        <g transform="matrix(3.47914,0,0,3.47914,-266.179,129.141)">
            <path d="M194.766,37.384C192.686,37.384 190.846,37.08 189.246,36.472C187.646,35.864 186.398,35.128 185.502,34.264C184.606,33.368 184.158,32.52 184.158,31.72C184.158,31.336 184.254,30.936 184.446,30.52C184.67,30.104 184.942,29.752 185.262,29.464C185.614,29.144 185.982,28.984 186.366,28.984C186.814,28.984 187.23,29.176 187.614,29.56C188.03,29.912 188.526,30.344 189.102,30.856C189.678,31.368 190.398,31.816 191.262,32.2C192.126,32.584 193.23,32.776 194.574,32.776C195.726,32.776 196.75,32.6 197.646,32.248C198.574,31.864 199.294,31.304 199.806,30.568C200.35,29.8 200.622,28.84 200.622,27.688C200.622,26.472 200.334,25.464 199.758,24.664C199.214,23.864 198.462,23.192 197.502,22.648C196.53,22.082 194.478,21.16 194.478,21.16C194.478,21.16 192.261,20.221 191.166,19.72C190.078,19.227 189.048,18.615 188.094,17.896C187.159,17.152 186.391,16.22 185.838,15.16C185.294,14.04 185.022,12.648 185.022,10.984C185.022,9.224 185.342,7.752 185.982,6.568C186.654,5.384 187.534,4.44 188.622,3.736C189.722,3.027 190.942,2.523 192.222,2.248C193.534,1.928 194.83,1.768 196.11,1.768C196.91,1.768 197.79,1.832 198.75,1.96C199.742,2.056 200.702,2.248 201.63,2.536C202.558,2.792 203.326,3.144 203.934,3.592C204.542,4.04 204.846,4.584 204.846,5.224C204.846,5.544 204.766,5.928 204.606,6.376C204.446,6.792 204.206,7.16 203.886,7.48C203.598,7.8 203.214,7.96 202.734,7.96C202.318,7.96 201.854,7.816 201.342,7.528C200.83,7.208 200.158,6.904 199.326,6.616C198.526,6.296 197.454,6.136 196.11,6.136C194.958,6.136 193.918,6.296 192.99,6.616C192.094,6.936 191.39,7.416 190.878,8.056C190.366,8.664 190.11,9.48 190.11,10.504C190.11,11.528 190.382,12.376 190.926,13.048C191.502,13.688 193.182,14.728 193.182,14.728C193.182,14.728 195.118,15.608 196.206,16.024C197.326,16.44 198.43,16.936 199.518,17.512C200.625,18.048 201.658,18.725 202.59,19.528C203.55,20.328 204.302,21.352 204.846,22.6C205.422,23.816 205.71,25.336 205.71,27.16C205.71,29.464 205.23,31.384 204.27,32.92C203.342,34.424 202.046,35.544 200.382,36.28C198.75,37.016 196.878,37.384 194.766,37.384ZM212.417,37C211.681,37 211.073,36.824 210.593,36.472C210.145,36.12 209.921,35.736 209.921,35.32L209.921,15.88C209.921,15.4 210.145,15.016 210.593,14.728C211.073,14.408 211.681,14.248 212.417,14.248C213.025,14.248 213.553,14.408 214.001,14.728C214.449,15.016 214.673,15.4 214.673,15.88L214.673,17.608C215.153,16.68 215.937,15.848 217.025,15.112C218.145,14.344 219.505,13.96 221.105,13.96C222.609,13.96 223.985,14.392 225.233,15.256C226.513,16.088 227.537,17.224 228.305,18.664C229.073,20.072 229.457,21.656 229.457,23.416L229.457,35.32C229.457,35.864 229.185,36.28 228.641,36.568C228.113,36.86 227.517,37.009 226.913,37C226.326,36.997 225.749,36.849 225.233,36.568C224.689,36.28 224.417,35.864 224.417,35.32L224.417,23.416C224.417,22.584 224.193,21.784 223.745,21.016C223.336,20.256 222.742,19.612 222.017,19.144C221.29,18.667 220.438,18.416 219.569,18.424C218.801,18.424 218.065,18.632 217.361,19.048C216.657,19.432 216.081,19.992 215.633,20.728C215.185,21.464 214.961,22.36 214.961,23.416L214.961,35.32C214.961,35.736 214.705,36.12 214.193,36.472C213.713,36.824 213.121,37 212.417,37ZM236.98,8.536C236.18,8.536 235.492,8.264 234.916,7.72C234.34,7.176 234.052,6.568 234.052,5.896C234.052,5.16 234.34,4.536 234.916,4.024C235.492,3.512 236.18,3.256 236.98,3.256C237.78,3.256 238.452,3.512 238.996,4.024C239.572,4.536 239.86,5.16 239.86,5.896C239.86,6.568 239.572,7.176 238.996,7.72C238.452,8.264 237.78,8.536 236.98,8.536ZM236.98,37C236.244,37 235.636,36.824 235.156,36.472C234.708,36.12 234.484,35.736 234.484,35.32L234.484,15.88C234.484,15.4 234.708,15.016 235.156,14.728C235.636,14.408 236.244,14.248 236.98,14.248C237.684,14.248 238.276,14.408 238.756,14.728C239.268,15.016 239.524,15.4 239.524,15.88L239.524,35.32C239.524,35.736 239.268,36.12 238.756,36.472C238.276,36.824 237.684,37 236.98,37ZM247.245,47.8C246.541,47.8 245.949,47.624 245.469,47.272C245.021,46.92 244.797,46.536 244.797,46.12L244.797,15.88C244.797,15.4 245.021,15.016 245.469,14.728C245.949,14.408 246.525,14.248 247.197,14.248C247.869,14.248 248.429,14.408 248.877,14.728C249.325,15.016 249.549,15.4 249.549,15.88L249.549,17.608C250.093,16.68 250.909,15.848 251.997,15.112C253.117,14.344 254.445,13.96 255.981,13.96C257.581,13.96 259.037,14.392 260.349,15.256C261.661,16.088 262.701,17.224 263.469,18.664C264.237,20.072 264.621,21.656 264.621,23.416L264.621,27.832C264.621,29.496 264.221,31.064 263.421,32.536C262.653,33.976 261.629,35.144 260.349,36.04C259.069,36.936 257.677,37.384 256.173,37.384C254.733,37.384 253.437,37.016 252.285,36.28C251.133,35.512 250.317,34.632 249.837,33.64L249.837,46.12C249.837,46.536 249.581,46.92 249.069,47.272C248.589,47.624 247.981,47.8 247.245,47.8ZM254.685,32.92C255.549,32.92 256.349,32.68 257.085,32.2C257.825,31.715 258.435,31.056 258.861,30.28C259.341,29.48 259.581,28.664 259.581,27.832L259.581,23.416C259.581,22.584 259.357,21.784 258.909,21.016C258.464,20.251 257.838,19.608 257.085,19.144C256.349,18.664 255.517,18.424 254.589,18.424C253.821,18.424 253.069,18.632 252.333,19.048C251.589,19.439 250.96,20.019 250.509,20.728C250.061,21.464 249.837,22.36 249.837,23.416L249.837,28.936C249.837,29.32 250.045,29.832 250.461,30.472C250.877,31.08 251.453,31.64 252.189,32.152C252.92,32.662 253.793,32.931 254.685,32.92ZM271.527,47.8C270.823,47.8 270.231,47.624 269.751,47.272C269.303,46.92 269.079,46.536 269.079,46.12L269.079,15.88C269.079,15.4 269.303,15.016 269.751,14.728C270.231,14.408 270.807,14.248 271.479,14.248C272.151,14.248 272.711,14.408 273.159,14.728C273.607,15.016 273.831,15.4 273.831,15.88L273.831,17.608C274.375,16.68 275.191,15.848 276.279,15.112C277.399,14.344 278.727,13.96 280.263,13.96C281.863,13.96 283.319,14.392 284.631,15.256C285.943,16.088 286.983,17.224 287.751,18.664C288.519,20.072 288.903,21.656 288.903,23.416L288.903,27.832C288.903,29.496 288.503,31.064 287.703,32.536C286.935,33.976 285.911,35.144 284.631,36.04C283.351,36.936 281.959,37.384 280.455,37.384C279.015,37.384 277.719,37.016 276.567,36.28C275.415,35.512 274.599,34.632 274.119,33.64L274.119,46.12C274.119,46.536 273.863,46.92 273.351,47.272C272.871,47.624 272.263,47.8 271.527,47.8ZM278.967,32.92C279.831,32.92 280.631,32.68 281.367,32.2C282.107,31.715 282.717,31.056 283.143,30.28C283.623,29.48 283.863,28.664 283.863,27.832L283.863,23.416C283.863,22.584 283.639,21.784 283.191,21.016C282.746,20.251 282.12,19.608 281.367,19.144C280.631,18.664 279.799,18.424 278.871,18.424C278.103,18.424 277.351,18.632 276.615,19.048C275.871,19.439 275.242,20.019 274.791,20.728C274.343,21.464 274.119,22.36 274.119,23.416L274.119,28.936C274.119,29.32 274.327,29.832 274.743,30.472C275.159,31.08 275.735,31.64 276.471,32.152C277.202,32.662 278.075,32.931 278.967,32.92ZM303.584,37.384C301.408,37.384 299.488,36.984 297.824,36.184C296.16,35.384 294.848,34.28 293.888,32.872C292.928,31.432 292.448,29.752 292.448,27.832L292.448,23.272C292.448,21.576 292.896,20.024 293.792,18.616C294.714,17.214 295.967,16.06 297.44,15.256C298.944,14.392 300.608,13.96 302.432,13.96C304.16,13.96 305.744,14.344 307.184,15.112C308.595,15.822 309.79,16.9 310.64,18.232C311.536,19.576 311.984,21.112 311.984,22.84C311.984,24.184 311.776,25.144 311.36,25.72C310.944,26.296 310.4,26.648 309.728,26.776C309.032,26.906 308.324,26.971 307.616,26.968L297.488,26.968L297.488,28.072C297.488,29.672 298.064,30.952 299.216,31.912C300.4,32.84 301.904,33.304 303.728,33.304C304.848,33.304 305.76,33.144 306.464,32.824C307.168,32.504 307.76,32.2 308.24,31.912C308.72,31.624 309.168,31.48 309.584,31.48C310,31.48 310.352,31.608 310.64,31.864C310.928,32.12 311.152,32.424 311.312,32.776C311.472,33.128 311.552,33.448 311.552,33.736C311.552,34.216 311.216,34.744 310.544,35.32C309.904,35.896 308.992,36.392 307.808,36.808C306.624,37.192 305.216,37.384 303.584,37.384ZM297.488,23.848L305.456,23.848C306.16,23.848 306.624,23.752 306.848,23.56C307.104,23.368 307.232,22.984 307.232,22.408C307.232,21.576 307.024,20.808 306.608,20.104C306.21,19.386 305.609,18.801 304.88,18.424C304.144,18.008 303.312,17.8 302.384,17.8C301.488,17.8 300.672,17.992 299.936,18.376C299.218,18.744 298.607,19.289 298.16,19.96C297.712,20.632 297.488,21.416 297.488,22.312L297.488,23.848ZM324.397,37C321.677,37 319.597,36.408 318.157,35.224C316.717,34.008 315.997,32.104 315.997,29.512L315.997,5.464C315.997,4.984 316.253,4.6 316.765,4.312C317.827,3.674 319.159,3.674 320.221,4.312C320.765,4.6 321.037,4.984 321.037,5.464L321.037,14.248L326.893,14.248C327.341,14.248 327.677,14.44 327.901,14.824C328.157,15.208 328.285,15.64 328.285,16.12C328.285,16.6 328.157,17.032 327.901,17.416C327.677,17.8 327.341,17.992 326.893,17.992L321.037,17.992L321.037,29.512C321.037,30.664 321.277,31.48 321.757,31.96C322.269,32.44 323.149,32.68 324.397,32.68L326.029,32.68C326.765,32.68 327.309,32.904 327.661,33.352C328.045,33.768 328.237,34.264 328.237,34.84C328.237,35.384 328.045,35.88 327.661,36.328C327.309,36.776 326.765,37 326.029,37L324.397,37ZM338.709,37.384C337.141,37.384 335.733,37.192 334.485,36.808C333.237,36.424 332.245,35.944 331.509,35.368C330.805,34.76 330.453,34.152 330.453,33.544C330.453,33.256 330.517,32.936 330.645,32.584C330.805,32.232 331.013,31.928 331.269,31.672C331.557,31.416 331.861,31.288 332.181,31.288C332.597,31.288 333.029,31.48 333.477,31.864C333.957,32.216 334.581,32.584 335.349,32.968C336.117,33.32 337.189,33.496 338.565,33.496C340.165,33.496 341.237,33.224 341.781,32.68C342.357,32.136 342.645,31.544 342.645,30.904C342.645,30.072 342.357,29.432 341.781,28.984C341.237,28.504 340.517,28.12 339.621,27.832C338.703,27.528 337.774,27.256 336.837,27.016C335.862,26.734 334.914,26.365 334.005,25.912C333.146,25.469 332.406,24.827 331.845,24.04C331.301,23.24 331.029,22.184 331.029,20.872C331.029,19.784 331.301,18.712 331.845,17.656C332.389,16.568 333.253,15.688 334.437,15.016C335.653,14.312 337.269,13.96 339.285,13.96C340.501,13.96 341.653,14.088 342.741,14.344C343.829,14.6 344.725,14.952 345.429,15.4C346.133,15.816 346.485,16.28 346.485,16.792C346.485,17.016 346.405,17.336 346.245,17.752C346.085,18.136 345.861,18.488 345.573,18.808C345.317,19.096 344.981,19.24 344.565,19.24C344.245,19.24 343.845,19.128 343.365,18.904C342.885,18.648 342.325,18.408 341.685,18.184C341.045,17.96 340.261,17.848 339.333,17.848C338.405,17.848 337.653,18.008 337.077,18.328C336.533,18.616 336.133,18.968 335.877,19.384C335.621,19.8 335.493,20.216 335.493,20.632C335.493,21.336 335.765,21.88 336.309,22.264C336.853,22.648 337.573,22.968 338.469,23.224C339.365,23.48 340.309,23.752 341.301,24.04C342.293,24.296 343.221,24.68 344.085,25.192C344.966,25.689 345.708,26.399 346.245,27.256C346.821,28.12 347.109,29.272 347.109,30.712C347.109,32.728 346.373,34.344 344.901,35.56C343.461,36.776 341.397,37.384 338.709,37.384Z" style="fill:url(#_Linear1);fill-rule:nonzero;"/>
        </g>
        <g transform="matrix(3.43752,0,0,3.43752,372.387,-2.61527)">
            <path d="M13.44,37.288C12.745,37.29 12.057,37.143 11.424,36.856C10.784,36.568 10.368,36.136 10.176,35.56L0.672,4.456C0.64,4.298 0.624,4.137 0.624,3.976C0.624,3.56 0.784,3.208 1.104,2.92C1.424,2.6 1.824,2.36 2.304,2.2C2.779,2.015 3.283,1.918 3.792,1.912C4.208,1.912 4.576,1.992 4.896,2.152C5.248,2.312 5.472,2.584 5.568,2.968L13.392,30.328L17.76,13.144C17.888,12.632 18.192,12.264 18.672,12.04C19.162,11.789 19.705,11.658 20.256,11.656C20.864,11.656 21.408,11.784 21.888,12.04C22.368,12.264 22.672,12.632 22.8,13.144L27.168,30.328L34.992,2.968C35.12,2.584 35.344,2.312 35.664,2.152C35.984,1.992 36.352,1.912 36.768,1.912C37.248,1.912 37.728,2.008 38.208,2.2C38.688,2.36 39.088,2.6 39.408,2.92C39.76,3.208 39.936,3.56 39.936,3.976C39.936,4.136 39.904,4.296 39.84,4.456L30.384,35.56C30.192,36.136 29.776,36.568 29.136,36.856C28.505,37.149 27.816,37.297 27.12,37.288C26.425,37.29 25.737,37.143 25.104,36.856C24.464,36.568 24.08,36.136 23.952,35.56L20.256,21.064L16.656,35.56C16.496,36.136 16.096,36.568 15.456,36.856C14.825,37.149 14.136,37.297 13.44,37.288ZM51.115,37.384C48.939,37.384 47.019,36.984 45.355,36.184C43.691,35.384 42.379,34.28 41.419,32.872C40.459,31.432 39.979,29.752 39.979,27.832L39.979,23.272C39.979,21.576 40.427,20.024 41.323,18.616C42.245,17.214 43.498,16.06 44.971,15.256C46.475,14.392 48.139,13.96 49.963,13.96C51.691,13.96 53.275,14.344 54.715,15.112C56.126,15.822 57.321,16.9 58.171,18.232C59.067,19.576 59.515,21.112 59.515,22.84C59.515,24.184 59.307,25.144 58.891,25.72C58.475,26.296 57.931,26.648 57.259,26.776C56.563,26.906 55.855,26.971 55.147,26.968L45.02,26.968L45.02,28.072C45.02,29.672 45.596,30.952 46.748,31.912C47.932,32.84 49.436,33.304 51.26,33.304C52.38,33.304 53.292,33.144 53.996,32.824C54.7,32.504 55.292,32.2 55.772,31.912C56.252,31.624 56.7,31.48 57.116,31.48C57.532,31.48 57.884,31.608 58.172,31.864C58.46,32.12 58.684,32.424 58.844,32.776C59.004,33.128 59.084,33.448 59.084,33.736C59.084,34.216 58.748,34.744 58.076,35.32C57.436,35.896 56.524,36.392 55.34,36.808C54.156,37.192 52.748,37.384 51.116,37.384L51.115,37.384ZM45.02,23.848L52.988,23.848C53.692,23.848 54.156,23.752 54.38,23.56C54.636,23.368 54.764,22.984 54.764,22.408C54.764,21.576 54.556,20.808 54.14,20.104C53.742,19.386 53.141,18.801 52.412,18.424C51.676,18.008 50.844,17.8 49.916,17.8C49.02,17.8 48.204,17.992 47.468,18.376C46.75,18.744 46.139,19.289 45.692,19.96C45.244,20.632 45.02,21.416 45.02,22.312L45.02,23.848ZM75.05,37.384C73.545,37.384 72.185,37.016 70.97,36.28C69.785,35.512 68.937,34.632 68.425,33.64L68.425,35.32C68.425,35.736 68.201,36.12 67.753,36.472C67.305,36.824 66.761,37 66.121,37C65.417,37 64.825,36.824 64.345,36.472C63.897,36.12 63.673,35.736 63.673,35.32L63.673,2.344C63.673,1.864 63.897,1.48 64.345,1.192C64.825,0.872 65.417,0.712 66.121,0.712C66.857,0.712 67.465,0.872 67.945,1.192C68.457,1.48 68.713,1.864 68.713,2.344L68.713,17.608C69.225,16.68 70.009,15.848 71.065,15.112C72.121,14.344 73.401,13.96 74.905,13.96C76.473,13.96 77.897,14.392 79.177,15.256C80.489,16.088 81.529,17.224 82.297,18.664C83.097,20.072 83.497,21.656 83.497,23.416L83.497,27.832C83.497,29.496 83.097,31.064 82.297,32.536C81.529,33.976 80.505,35.144 79.225,36.04C77.945,36.936 76.553,37.384 75.049,37.384L75.05,37.384ZM73.61,32.92C74.473,32.92 75.273,32.68 76.01,32.2C76.75,31.715 77.36,31.056 77.785,30.28C78.233,29.48 78.457,28.664 78.457,27.832L78.457,23.416C78.457,22.584 78.233,21.784 77.785,21.016C77.349,20.261 76.74,19.619 76.009,19.144C75.282,18.667 74.43,18.416 73.561,18.424C72.761,18.424 71.993,18.632 71.257,19.048C70.513,19.439 69.884,20.019 69.433,20.728C68.953,21.464 68.713,22.36 68.713,23.416L68.713,28.936C68.713,29.32 68.921,29.832 69.337,30.472C69.785,31.08 70.377,31.64 71.113,32.152C71.844,32.662 72.717,32.931 73.609,32.92L73.61,32.92ZM90.883,37C90.243,37 89.651,36.856 89.107,36.568C88.595,36.28 88.339,35.864 88.339,35.32L88.339,3.544C88.339,3.096 88.515,2.712 88.867,2.392C89.251,2.072 89.731,1.912 90.307,1.912L99.667,1.912C101.619,1.912 103.395,2.264 104.995,2.968C106.595,3.64 107.859,4.76 108.787,6.328C109.715,7.864 110.179,9.912 110.179,12.472L110.179,12.856C110.179,15.416 109.699,17.48 108.739,19.048C107.811,20.616 106.515,21.752 104.851,22.456C103.219,23.128 101.395,23.464 99.379,23.464L93.427,23.464L93.427,35.32C93.427,35.864 93.155,36.28 92.611,36.568C92.083,36.86 91.487,37.009 90.883,37ZM93.427,19.432L99.379,19.432C101.171,19.432 102.563,18.92 103.555,17.896C104.579,16.872 105.091,15.304 105.091,13.192L105.091,12.616C105.091,10.504 104.579,8.952 103.555,7.96C102.563,6.936 101.171,6.424 99.379,6.424L93.427,6.424L93.427,19.432ZM123.114,37.384C120.938,37.384 119.018,36.984 117.354,36.184C115.69,35.384 114.378,34.28 113.418,32.872C112.458,31.432 111.978,29.752 111.978,27.832L111.978,23.272C111.978,21.576 112.426,20.024 113.322,18.616C114.244,17.214 115.497,16.06 116.97,15.256C118.474,14.392 120.138,13.96 121.962,13.96C123.69,13.96 125.274,14.344 126.714,15.112C128.125,15.822 129.32,16.9 130.17,18.232C131.066,19.576 131.514,21.112 131.514,22.84C131.514,24.184 131.306,25.144 130.89,25.72C130.474,26.296 129.93,26.648 129.258,26.776C128.562,26.906 127.854,26.971 127.146,26.968L117.018,26.968L117.018,28.072C117.018,29.672 117.594,30.952 118.746,31.912C119.93,32.84 121.434,33.304 123.258,33.304C124.378,33.304 125.29,33.144 125.994,32.824C126.698,32.504 127.29,32.2 127.77,31.912C128.25,31.624 128.698,31.48 129.114,31.48C129.53,31.48 129.882,31.608 130.17,31.864C130.458,32.12 130.682,32.424 130.842,32.776C131.002,33.128 131.082,33.448 131.082,33.736C131.082,34.216 130.746,34.744 130.074,35.32C129.434,35.896 128.522,36.392 127.338,36.808C126.154,37.192 124.746,37.384 123.114,37.384ZM117.018,23.848L124.986,23.848C125.69,23.848 126.154,23.752 126.378,23.56C126.634,23.368 126.762,22.984 126.762,22.408C126.762,21.576 126.554,20.808 126.138,20.104C125.74,19.386 125.139,18.801 124.41,18.424C123.674,18.008 122.842,17.8 121.914,17.8C121.018,17.8 120.202,17.992 119.466,18.376C118.748,18.744 118.137,19.289 117.69,19.96C117.242,20.632 117.018,21.416 117.018,22.312L117.018,23.848ZM138.072,37C137.368,37 136.776,36.824 136.296,36.472C135.848,36.12 135.624,35.736 135.624,35.32L135.624,15.88C135.624,15.4 135.848,15.016 136.296,14.728C136.776,14.408 137.368,14.248 138.072,14.248C138.712,14.248 139.256,14.408 139.704,14.728C140.152,15.016 140.376,15.4 140.376,15.88L140.376,17.992C140.749,17.291 141.218,16.645 141.768,16.072C142.382,15.46 143.097,14.956 143.88,14.584C144.68,14.168 145.57,13.954 146.472,13.96L148.008,13.96C148.52,13.96 148.968,14.184 149.352,14.632C149.736,15.048 149.928,15.56 149.928,16.168C149.928,16.776 149.736,17.304 149.352,17.752C148.968,18.2 148.52,18.424 148.008,18.424L146.472,18.424C145.512,18.424 144.584,18.712 143.688,19.288C142.792,19.864 142.056,20.68 141.48,21.736C140.936,22.76 140.664,24.008 140.664,25.48L140.664,35.32C140.664,35.736 140.408,36.12 139.896,36.472C139.416,36.824 138.808,37 138.072,37ZM155.324,37C154.62,37 154.028,36.856 153.548,36.568C153.1,36.248 152.876,35.848 152.876,35.368L152.876,9.88C152.876,8.152 153.26,6.6 154.028,5.224C154.796,3.816 155.82,2.712 157.1,1.912C158.38,1.112 159.788,0.712 161.324,0.712L163.58,0.712C164.22,0.712 164.7,0.936 165.02,1.384C165.372,1.832 165.548,2.328 165.548,2.872C165.548,3.448 165.372,3.96 165.02,4.408C164.7,4.824 164.22,5.032 163.58,5.032L162.284,5.032C161.452,5.032 160.7,5.224 160.028,5.608C159.387,5.993 158.857,6.539 158.492,7.192C158.108,7.832 157.916,8.568 157.916,9.4L157.916,14.248L164.108,14.248C164.588,14.248 164.94,14.44 165.164,14.824C165.42,15.208 165.548,15.64 165.548,16.12C165.548,16.6 165.42,17.032 165.164,17.416C164.94,17.8 164.588,17.992 164.108,17.992L157.916,17.992L157.916,35.368C157.916,35.848 157.66,36.248 157.148,36.568C156.636,36.856 156.028,37 155.324,37Z" style="fill:url(#_Linear2);fill-rule:nonzero;"/>
        </g>
    </g>
    <defs>
        <linearGradient id="_Linear1" x1="0" y1="0" x2="1" y2="0" gradientUnits="userSpaceOnUse" gradientTransform="matrix(340,0,0,340,9,49)"><stop offset="0" style="stop-color:rgb(60,142,238);stop-opacity:1"/><stop offset="1" style="stop-color:rgb(30,196,126);stop-opacity:1"/></linearGradient>
        <linearGradient id="_Linear2" x1="0" y1="0" x2="1" y2="0" gradientUnits="userSpaceOnUse" gradientTransform="matrix(340,0,0,340,9,49)"><stop offset="0" style="stop-color:rgb(60,142,238);stop-opacity:1"/><stop offset="1" style="stop-color:rgb(30,196,126);stop-opacity:1"/></linearGradient>
    </defs>
</svg>
